<svg width="30" height="34" viewBox="0 0 30 34" fill="none" xmlns="http://www.w3.org/2000/svg">
<path d="M16.3728 0.341315C15.5825 -0.113772 14.2899 -0.113772 13.4995 0.341315L1.43716 7.29763C0.646772 7.75272 0 8.87227 0 9.78342V23.6961C0 24.6072 0.646772 25.7258 1.43716 26.1818L13.4995 33.1382C14.2899 33.5933 15.5825 33.5933 16.3728 33.1382L28.4389 26.1818C29.2293 25.7258 29.8761 24.6072 29.8761 23.6961V9.78342C29.8761 8.87227 29.2293 7.75272 28.4389 7.29763L16.3728 0.341315Z" fill="#67C74F"/>
<path fill-rule="evenodd" clip-rule="evenodd" d="M16.4293 4.34339L25.1397 9.40288V9.40193C25.4077 9.58754 25.6422 9.81774 25.8331 10.0827L22.3396 12.1133C22.1056 11.7901 21.8073 11.5192 21.4636 11.3179L21.4493 11.3026L11.4358 5.49163L12.3013 4.98969L13.2838 4.41606C13.3285 4.39766 13.3718 4.37593 13.4132 4.35104C14.3054 3.79654 15.4278 3.77673 16.3389 4.29941C16.368 4.31616 16.3982 4.33085 16.4293 4.34339ZM7.24226 7.92388L17.2662 13.7415H17.2653C17.612 13.9428 17.9129 14.2147 18.1489 14.5398L14.915 16.4185L4.00838 10.0884C4.23787 9.77092 4.52909 9.50354 4.8644 9.3025L7.24226 7.92388ZM3.70972 10.6123L12.2176 15.5514L14.6278 16.951V20.7045C14.2521 20.6674 13.8876 20.5549 13.5559 20.3737L7.38965 16.7943L7.35732 16.7751C7.08151 16.6365 6.86276 16.7368 6.86276 17.0189C6.86276 17.301 7.08151 17.6576 7.35732 17.8363L7.37634 17.8469C7.38105 17.8509 7.38616 17.8544 7.39159 17.8574C7.39736 17.8598 7.40285 17.863 7.40773 17.8669L13.4474 21.37L13.4551 21.3767C13.4648 21.3812 13.4744 21.3863 13.4836 21.392L13.5064 21.4044C13.8524 21.6021 14.2356 21.7249 14.6316 21.7648V25.1015C14.2831 25.067 13.9439 24.9682 13.631 24.8099L12.1025 23.9227L7.42675 21.2084L7.40107 21.1931L7.37634 21.1797L7.35638 21.1682C7.0463 21.0114 6.80093 21.1281 6.80093 21.4465C6.80093 21.7648 7.0463 22.1673 7.35638 22.371L13.4437 25.9027L13.457 25.9094C13.8166 26.1217 14.2182 26.2523 14.6335 26.2918V29.6132C14.2869 29.5798 13.9493 29.4826 13.6377 29.3263L4.83111 24.2152C3.99376 23.7021 3.47726 22.7926 3.46338 21.8069V11.7376C3.46842 11.3496 3.55225 10.9667 3.70972 10.6123ZM16.3332 20.3384L16.3836 20.3116L18.7006 18.9674V16.2674V16.2349C18.6997 15.8339 18.6151 15.4375 18.4523 15.0714L15.2184 16.951V20.7026C15.6122 20.662 15.9931 20.5393 16.337 20.3422L16.3332 20.3384ZM26.1384 10.6123C26.2988 10.9757 26.3818 11.3688 26.3819 11.7663L26.381 11.7644C26.381 11.7964 26.3835 11.8284 26.3886 11.86V21.6606C26.3836 21.6942 26.381 21.728 26.381 21.7619C26.3813 22.7805 25.8454 23.7232 24.9724 24.2401C24.9661 24.2439 24.9601 24.2481 24.9543 24.2525L22.8865 25.4533V20.9273L16.3237 24.7372C15.9829 24.9288 15.6068 25.0485 15.2184 25.089V21.7639C15.607 21.7225 15.9829 21.6011 16.3227 21.4073H16.336L22.8846 17.6069V13.8849V13.7989V13.7358V13.5053L22.8656 13.4671C22.8334 13.1818 22.7587 12.903 22.644 12.6401L26.1384 10.6123ZM16.3208 25.9428L16.2923 25.9562C15.9598 26.1368 15.5946 26.2486 15.2184 26.2851V29.6161C15.6032 29.5762 15.9757 29.4578 16.3132 29.268L18.7053 27.8808V24.5604L16.3208 25.9428Z" fill="#18192D"/>
</svg>
