<svg width="24" height="19" viewBox="0 0 24 19" fill="none" xmlns="http://www.w3.org/2000/svg">
<rect x="1" y="1" width="22" height="13.6125" rx="0.55" stroke="white" stroke-width="1.5"/>
<rect x="3.19995" y="3.84985" width="7.5625" height="1.5" rx="0.75" fill="white"/>
<rect x="3.19995" y="6.4624" width="7.5625" height="1.5" rx="0.75" fill="white"/>
<rect x="3.19995" y="9.07471" width="7.5625" height="1.5" rx="0.75" fill="white"/>
<path fill-rule="evenodd" clip-rule="evenodd" d="M19 12.1363C20.2459 11.3593 21.075 9.97648 21.075 8.4C21.075 5.96995 19.1051 4 16.675 4C14.245 4 12.275 5.96995 12.275 8.4C12.275 9.82373 12.9512 11.0895 14 11.8937V18L16.5 16L19 18V12.1363Z" fill="#21243D"/>
<path d="M19 12.1363L18.6031 11.4999C18.3835 11.6368 18.25 11.8774 18.25 12.1363H19ZM14 11.8937H14.75C14.75 11.6605 14.6415 11.4405 14.4564 11.2986L14 11.8937ZM14 18H13.25C13.25 18.2883 13.4153 18.5511 13.6751 18.676C13.935 18.8009 14.2434 18.7658 14.4685 18.5857L14 18ZM16.5 16L16.9685 15.4143C16.6946 15.1952 16.3054 15.1952 16.0315 15.4143L16.5 16ZM19 18L18.5315 18.5857C18.7566 18.7658 19.065 18.8009 19.3249 18.676C19.5847 18.5511 19.75 18.2883 19.75 18H19ZM20.325 8.4C20.325 9.70693 19.6387 10.8541 18.6031 11.4999L19.3969 12.7727C20.8532 11.8645 21.825 10.246 21.825 8.4H20.325ZM16.675 4.75C18.6909 4.75 20.325 6.38416 20.325 8.4H21.825C21.825 5.55573 19.5193 3.25 16.675 3.25V4.75ZM13.025 8.4C13.025 6.38416 14.6592 4.75 16.675 4.75V3.25C13.8308 3.25 11.525 5.55573 11.525 8.4H13.025ZM14.4564 11.2986C13.5847 10.6302 13.025 9.58061 13.025 8.4H11.525C11.525 10.0669 12.3177 11.5489 13.5436 12.4889L14.4564 11.2986ZM14.75 18V11.8937H13.25V18H14.75ZM16.0315 15.4143L13.5315 17.4143L14.4685 18.5857L16.9685 16.5857L16.0315 15.4143ZM19.4685 17.4143L16.9685 15.4143L16.0315 16.5857L18.5315 18.5857L19.4685 17.4143ZM18.25 12.1363V18H19.75V12.1363H18.25Z" fill="white"/>
</svg>
