<svg width="20" height="19" viewBox="0 0 20 19" fill="none" xmlns="http://www.w3.org/2000/svg">
<path d="M9.99121 18.7422C14.9746 18.7422 19.0879 14.6289 19.0879 9.6543C19.0879 4.67969 14.9658 0.566406 9.98242 0.566406C5.00781 0.566406 0.90332 4.67969 0.90332 9.6543C0.90332 14.6289 5.0166 18.7422 9.99121 18.7422ZM9.99121 16.9316C5.95703 16.9316 2.73145 13.6885 2.73145 9.6543C2.73145 5.85742 5.5791 2.77246 9.2793 2.41211V9.84766C9.2793 10.0938 9.34961 10.252 9.5166 10.4277L14.5527 15.332C13.3047 16.334 11.7227 16.9316 9.99121 16.9316ZM10.7031 8.74902V2.41211C12.9619 2.63184 14.9043 3.87109 16.082 5.67285L10.7031 8.74902ZM11.2832 10.0674L16.7412 6.93848C17.0752 7.77344 17.2686 8.6875 17.2686 9.6543C17.2686 11.4297 16.6445 13.0469 15.5986 14.3125L11.2832 10.0674Z" fill="#D9DDE5"/>
</svg>
