<svg width="16" height="19" viewBox="0 0 16 19" fill="none" xmlns="http://www.w3.org/2000/svg">
<path d="M8.07031 12.4141C8.46875 12.4141 8.79688 12.0859 8.79688 11.6953V3.83594L8.74219 2.67969L9.21875 3.25L10.3125 4.41406C10.4375 4.55469 10.6172 4.625 10.7969 4.625C11.1562 4.625 11.4531 4.36719 11.4531 4C11.4531 3.80469 11.375 3.66406 11.2422 3.53125L8.625 1.00781C8.4375 0.820312 8.25781 0.757812 8.07031 0.757812C7.875 0.757812 7.70312 0.820312 7.51562 1.00781L4.89062 3.53125C4.75781 3.66406 4.67969 3.80469 4.67969 4C4.67969 4.36719 4.96875 4.625 5.32812 4.625C5.50781 4.625 5.69531 4.55469 5.82031 4.41406L6.91406 3.25L7.39844 2.67188L7.33594 3.83594V11.6953C7.33594 12.0859 7.66406 12.4141 8.07031 12.4141ZM3.5625 18.6562H12.5625C14.2578 18.6562 15.1328 17.7812 15.1328 16.1094V8.42969C15.1328 6.75781 14.2578 5.88281 12.5625 5.88281H10.4531V7.4375H12.4609C13.1719 7.4375 13.5781 7.8125 13.5781 8.5625V15.9688C13.5781 16.7188 13.1719 17.0938 12.4609 17.0938H3.66406C2.94531 17.0938 2.54688 16.7188 2.54688 15.9688V8.5625C2.54688 7.8125 2.94531 7.4375 3.66406 7.4375H5.69531V5.88281H3.5625C1.875 5.88281 0.992188 6.75 0.992188 8.42969V16.1094C0.992188 17.7812 1.875 18.6562 3.5625 18.6562Z" fill="#D9DDE5"/>
</svg>
