<svg width="26" height="25" viewBox="0 0 26 25" fill="none" xmlns="http://www.w3.org/2000/svg">
<mask id="path-1-inside-1" fill="white">
<path fill-rule="evenodd" clip-rule="evenodd" d="M5.32104 20.8233L13.0001 23.9912C13.4223 24.1566 14.4783 24.388 15.2382 23.9912L26.0001 17.5C25.4724 16.7284 23.8395 14.7999 21.2161 15.7292L16.5852 18.1097C16.5469 17.0449 15.5956 16.1924 14.5677 16.1924H11.7747C11.0797 15.0028 9.82528 14.3808 8.39316 14.3808H5.32104V20.8233Z"/>
</mask>
<path d="M13.0001 23.9912L12.5043 25.193C12.5115 25.196 12.5188 25.1989 12.5261 25.2017L13.0001 23.9912ZM5.32104 20.8233H4.02104C4.02104 21.3498 4.33858 21.8243 4.82527 22.0251L5.32104 20.8233ZM15.2382 23.9912L15.8399 25.1436C15.8636 25.1313 15.8868 25.1182 15.9097 25.1044L15.2382 23.9912ZM26.0001 17.5L26.6715 18.6131C26.9778 18.4284 27.1944 18.1256 27.2704 17.7761C27.3464 17.4266 27.275 17.0612 27.0731 16.766L26.0001 17.5ZM21.2161 15.7292L20.782 14.5038C20.7271 14.5232 20.6735 14.5464 20.6217 14.573L21.2161 15.7292ZM16.5852 18.1097L15.2861 18.1565C15.3021 18.601 15.5442 19.0065 15.928 19.2314C16.3118 19.4562 16.784 19.4693 17.1796 19.2659L16.5852 18.1097ZM11.7747 16.1924L10.6521 16.8481C10.8852 17.2471 11.3126 17.4924 11.7747 17.4924V16.1924ZM5.32104 14.3808V13.0808C4.60307 13.0808 4.02104 13.6628 4.02104 14.3808H5.32104ZM13.4959 22.7895L5.81682 19.6216L4.82527 22.0251L12.5043 25.193L13.4959 22.7895ZM14.6365 22.8389C14.5531 22.8824 14.3709 22.9254 14.0836 22.9052C13.8068 22.8858 13.5661 22.8168 13.4741 22.7807L12.5261 25.2017C12.8562 25.331 13.3547 25.4604 13.9014 25.4988C14.4376 25.5365 15.1634 25.4968 15.8399 25.1436L14.6365 22.8389ZM25.3286 16.3868L14.5668 22.8781L15.9097 25.1044L26.6715 18.6131L25.3286 16.3868ZM21.6501 16.9546C22.5591 16.6326 23.2286 16.8055 23.7447 17.103C24.3089 17.4283 24.7171 17.9269 24.9271 18.2339L27.0731 16.766C26.7554 16.3015 26.0833 15.4501 25.0432 14.8505C23.9551 14.2232 22.4965 13.8965 20.782 14.5038L21.6501 16.9546ZM17.1796 19.2659L21.8104 16.8854L20.6217 14.573L15.9909 16.9535L17.1796 19.2659ZM14.5677 17.4924C14.9364 17.4924 15.2744 17.8308 15.2861 18.1565L17.8844 18.063C17.8195 16.259 16.2548 14.8924 14.5677 14.8924V17.4924ZM11.7747 17.4924H14.5677V14.8924H11.7747V17.4924ZM8.39316 15.6808C9.44092 15.6808 10.227 16.1203 10.6521 16.8481L12.8972 15.5368C11.9325 13.8852 10.2096 13.0808 8.39316 13.0808V15.6808ZM5.32104 15.6808H8.39316V13.0808H5.32104V15.6808ZM4.02104 14.3808V20.8233H6.62104V14.3808H4.02104Z" fill="#D9DDE5" mask="url(#path-1-inside-1)"/>
<path d="M12 19.7549H14.4259C15.0431 19.7549 16 19.4452 16 18.2062" stroke="#D9DDE5" stroke-width="1.3" stroke-linecap="round" stroke-linejoin="round"/>
<path d="M1 13.7144H5.62962V21.7683H1" stroke="#D9DDE5" stroke-width="1.3" stroke-linecap="round" stroke-linejoin="round"/>
<circle cx="15.881" cy="7.76198" r="6.19523" stroke="#D9DDE5" stroke-width="1.3"/>
<path d="M15.7212 12.308V11.78C15.5158 11.7727 15.2885 11.7507 15.0392 11.714C14.7972 11.6773 14.5698 11.6223 14.3572 11.549C14.1445 11.4757 13.9685 11.3803 13.8292 11.263C13.6898 11.1457 13.6202 11.0063 13.6202 10.845C13.6202 10.6983 13.6715 10.5737 13.7742 10.471C13.8842 10.361 14.0345 10.306 14.2252 10.306C14.3278 10.306 14.4305 10.3243 14.5332 10.361C14.6358 10.3903 14.7458 10.427 14.8632 10.471C14.9805 10.5077 15.1088 10.5443 15.2482 10.581C15.3875 10.6177 15.5452 10.6397 15.7212 10.647V8.579C15.4718 8.49833 15.2225 8.41033 14.9732 8.315C14.7238 8.21233 14.5002 8.08767 14.3022 7.941C14.1042 7.787 13.9428 7.59633 13.8182 7.369C13.6935 7.13433 13.6312 6.84467 13.6312 6.5C13.6312 5.89133 13.8182 5.41467 14.1922 5.07C14.5662 4.72533 15.0758 4.531 15.7212 4.487V3.937C15.7212 3.85633 15.7468 3.79033 15.7982 3.739C15.8568 3.68033 15.9265 3.651 16.0072 3.651C16.0878 3.651 16.1538 3.68033 16.2052 3.739C16.2638 3.79033 16.2932 3.85633 16.2932 3.937V4.487C16.4692 4.49433 16.6598 4.51633 16.8652 4.553C17.0705 4.58233 17.2612 4.63 17.4372 4.696C17.6132 4.762 17.7598 4.85 17.8772 4.96C18.0018 5.06267 18.0642 5.191 18.0642 5.345C18.0642 5.49167 18.0092 5.62 17.8992 5.73C17.7892 5.84 17.6425 5.895 17.4592 5.895C17.3712 5.895 17.2905 5.884 17.2172 5.862C17.1438 5.83267 17.0632 5.80333 16.9752 5.774C16.8872 5.73733 16.7882 5.70433 16.6782 5.675C16.5755 5.64567 16.4472 5.62367 16.2932 5.609V7.567C16.5572 7.655 16.8138 7.74667 17.0632 7.842C17.3125 7.93733 17.5325 8.062 17.7232 8.216C17.9212 8.36267 18.0788 8.546 18.1962 8.766C18.3208 8.986 18.3832 9.26833 18.3832 9.613C18.3832 9.92833 18.3318 10.2107 18.2292 10.46C18.1265 10.7093 17.9798 10.9257 17.7892 11.109C17.6058 11.285 17.3858 11.428 17.1292 11.538C16.8725 11.648 16.5938 11.7213 16.2932 11.758V12.308C16.2932 12.3887 16.2638 12.4547 16.2052 12.506C16.1538 12.5647 16.0878 12.594 16.0072 12.594C15.9265 12.594 15.8568 12.5647 15.7982 12.506C15.7468 12.4547 15.7212 12.3887 15.7212 12.308ZM17.1292 9.701C17.1218 9.44433 17.0595 9.25733 16.9422 9.14C16.8248 9.02267 16.7075 8.93833 16.5902 8.887L16.2932 8.766V10.614C16.8505 10.5113 17.1292 10.207 17.1292 9.701ZM15.4242 7.237L15.7212 7.369V5.62C15.4865 5.65667 15.2848 5.73733 15.1162 5.862C14.9548 5.97933 14.8742 6.17 14.8742 6.434C14.8742 6.69067 14.9365 6.87767 15.0612 6.995C15.1858 7.105 15.3068 7.18567 15.4242 7.237Z" fill="#D9DDE5"/>
</svg>
