<svg width="25" height="25" viewBox="0 0 25 25" fill="none" xmlns="http://www.w3.org/2000/svg">
<path d="M12.5 0C19.4042 0 25 5.59693 25 12.5C25 19.4042 19.4042 25 12.5 25C5.59693 25 0 19.4036 0 12.5C0 5.59693 5.59693 0 12.5 0Z" fill="#F5AC37"/>
<path d="M12.9627 13.3827H17.7125C17.8137 13.3827 17.8615 13.3827 17.8688 13.2499C17.9076 12.7667 17.9076 12.2807 17.8688 11.797C17.8688 11.703 17.8221 11.6642 17.7203 11.6642H8.26742C8.15042 11.6642 8.11892 11.703 8.11892 11.8127V13.2032C8.11892 13.3827 8.11892 13.3827 8.30623 13.3827H12.9627ZM17.3384 10.0391C17.3519 10.0037 17.3519 9.96489 17.3384 9.93002C17.2591 9.75733 17.1651 9.59251 17.056 9.43782C16.8918 9.17344 16.6983 8.92988 16.4778 8.71107C16.3737 8.57888 16.2533 8.46019 16.1183 8.3595C15.4422 7.78406 14.6384 7.3768 13.7744 7.17205C13.3384 7.07417 12.8929 7.02749 12.4463 7.03142H8.25111C8.13411 7.03142 8.11836 7.07811 8.11836 7.17992V9.95308C8.11836 10.0701 8.11836 10.1016 8.26686 10.1016H17.2821C17.2821 10.1016 17.3603 10.0858 17.3761 10.0391H17.3378H17.3384ZM17.3384 15.0078C17.2056 14.9931 17.0718 14.9931 16.939 15.0078H8.2753C8.1583 15.0078 8.11892 15.0078 8.11892 15.1641V17.8754C8.11892 18.0003 8.11892 18.0318 8.2753 18.0318H12.2753C12.4665 18.0464 12.6578 18.0329 12.8451 17.993C13.4256 17.9513 13.9965 17.8253 14.541 17.6178C14.739 17.5492 14.9303 17.4597 15.1109 17.3523H15.1654C16.1031 16.8646 16.8648 16.0985 17.3451 15.1579C17.3451 15.1579 17.3997 15.0398 17.3384 15.0089V15.0078ZM6.54897 19.4375V19.3908V17.5705V16.9535V15.1174C6.54897 15.0156 6.54897 15.0004 6.42409 15.0004H4.7287C4.63476 15.0004 4.59595 15.0004 4.59595 14.8756V13.3911H6.40834C6.50959 13.3911 6.54897 13.3911 6.54897 13.2584V11.7897C6.54897 11.6957 6.54897 11.6727 6.42409 11.6727H4.7287C4.63476 11.6727 4.59595 11.6727 4.59595 11.5478V10.173C4.59595 10.087 4.59595 10.0639 4.72082 10.0639H6.40047C6.51747 10.0639 6.54897 10.0639 6.54897 9.91539V5.70447C6.54897 5.5796 6.54897 5.5481 6.70534 5.5481H12.5644C12.9897 5.56497 13.4121 5.61166 13.83 5.68872C14.6912 5.84791 15.5187 6.1556 16.2752 6.59492C16.777 6.89023 17.2388 7.24686 17.65 7.65749C17.9594 7.97868 18.2384 8.32631 18.4859 8.69644C18.7317 9.07163 18.9359 9.4727 19.0962 9.89177C19.1159 10.0009 19.2205 10.0746 19.3297 10.056H20.728C20.9075 10.056 20.9075 10.056 20.9154 10.2281V11.5095C20.9154 11.6344 20.8687 11.6659 20.7432 11.6659H19.6649C19.5558 11.6659 19.5243 11.6659 19.5322 11.8065C19.5749 12.2824 19.5749 12.76 19.5322 13.2359C19.5322 13.3686 19.5322 13.3844 19.6812 13.3844H20.9148C20.9694 13.4547 20.9148 13.525 20.9148 13.5959C20.9227 13.6864 20.9227 13.7781 20.9148 13.8687V14.8143C20.9148 14.947 20.876 14.9864 20.7584 14.9864H19.2818C19.1789 14.9667 19.0788 15.0325 19.0552 15.1349C18.7036 16.049 18.1411 16.8685 17.4143 17.5255C17.1488 17.7646 16.8698 17.9896 16.5784 18.1972C16.2657 18.3772 15.9614 18.5645 15.6407 18.713C15.0507 18.9785 14.4319 19.1742 13.7969 19.2985C13.1938 19.4065 12.5824 19.4555 11.9687 19.447H6.54672V19.4392L6.54897 19.4375Z" fill="#FEFEFD"/>
</svg>
