<svg width="90" height="68" viewBox="0 0 90 68" fill="none" xmlns="http://www.w3.org/2000/svg">
<path d="M45.155 67.186C20.5304 67.186 0.57196 60.0712 0.57196 50.5386C0.57196 45.5644 6.00816 41.083 14.7092 37.926C21.5006 42.2842 32.8966 44.5172 45.8172 44.5172C58.4298 44.5172 69.5794 41.7914 76.4324 37.618C84.6406 40.7442 89.738 45.1024 89.738 49.9072C89.738 59.4552 69.7796 67.186 45.155 67.186Z" fill="white"/>
<path d="M45.4168 42.3766C26.752 42.3766 11.6138 36.5246 11.6138 29.302C11.6138 25.298 16.28 21.7098 23.595 19.3228C28.8156 22.0486 36.6388 23.7888 45.4168 23.7888C54.1948 23.7888 62.018 22.0486 67.2386 19.3228C74.569 21.7252 79.2198 25.298 79.2198 29.302C79.2352 36.5246 64.097 42.3766 45.4168 42.3766Z" fill="white"/>
<path d="M45.2936 21.6174C30.8638 21.6174 19.1598 16.7818 19.1598 10.8374C19.1598 4.89301 30.8638 0.057415 45.2936 0.057415C59.7234 0.057415 71.4274 4.89301 71.4274 10.8374C71.4274 16.7818 59.7234 21.6174 45.2936 21.6174Z" fill="white"/>
</svg>
