<svg width="1376" height="618" viewBox="0 0 1376 500" fill="none" xmlns="http://www.w3.org/2000/svg">
<ellipse cx="631.116" cy="450.691" rx="205.997" ry="96.4743" transform="rotate(50.8827 631.116 450.691)" fill="url(#paint0_linear)"/>
<path d="M548.001 402.001C509.966 426.996 340.009 630.322 286.638 549.107C233.267 467.893 220.834 381.792 258.869 356.797C296.905 331.802 285.443 337.448 390.001 390C430.001 410.105 586.036 377.005 548.001 402.001Z" fill="url(#paint1_linear)"/>
<path d="M581.727 615.674C563.33 657.302 445.512 645.572 318.574 589.473C191.637 533.374 86.6072 444.865 122.045 412.522C144.343 392.17 176.799 377.688 336.785 412.432C552.101 459.192 600.125 574.045 581.727 615.674Z" fill="url(#paint2_linear)"/>
<path d="M491.406 493.061C429.997 496.452 378.745 472.601 376.934 439.788C375.122 406.975 425.348 372.934 484.845 374.235C522.282 375.054 558.169 378.724 604.642 414.193C667.188 461.927 552.816 489.67 491.406 493.061Z" fill="url(#paint3_linear)"/>
<path d="M82.7782 523.666C21.3684 527.057 -29.8829 503.206 -31.6947 470.393C-33.5065 437.58 16.7199 403.539 76.217 404.84C113.654 405.659 149.54 409.33 196.014 444.798C258.56 492.533 144.188 520.276 82.7782 523.666Z" fill="url(#paint4_linear)"/>
<ellipse cx="739.899" cy="374.478" rx="127.114" ry="67.9268" transform="rotate(50.8827 739.899 374.478)" fill="url(#paint5_linear)"/>
<ellipse cx="871.289" cy="309.799" rx="137.327" ry="96.0682" transform="rotate(50.8827 871.289 309.799)" fill="url(#paint6_linear)"/>
<path d="M572.207 48H430.747H323C316.925 48 311.393 42.7266 314.189 37.3331C317.923 30.129 327.923 23.3513 354.461 23.3513C378.21 23.3513 383.968 0 413.474 0C426.141 0 446.024 12.5946 454.924 8.94993C470.106 1.13982 486.335 4.95021 496.282 12.5945C507.8 21.4459 508.184 25.427 532.941 23.3513C553.218 21.6512 567.799 33.1802 575.179 42.3977C577.085 44.7776 575.256 48 572.207 48Z" fill="url(#paint7_linear)"/>
<path d="M-183.226 312H163.143H435C441.075 312 446.181 307.045 445.313 301.032C442.234 279.704 426.005 252.946 344.857 252.946C288.286 252.946 274.571 197 204.286 197C174.114 197 126.753 227.175 105.553 218.443C69.3882 199.731 30.7294 208.86 7.03528 227.174C-20.4 248.381 -21.3142 257.919 -80.2856 252.946C-134.39 248.383 -171.467 283.587 -186.486 306.232C-188.169 308.769 -186.27 312 -183.226 312Z" fill="url(#paint8_linear)"/>
<path d="M1368.98 79H1168.33H1013C1006.92 79 1001.54 73.8916 1003.62 68.1826C1007.45 57.6462 1020.14 46.6486 1061.48 46.6486C1094.74 46.6486 1102.81 16 1144.14 16C1161.88 16 1189.73 32.5304 1202.2 27.7468C1223.47 17.496 1246.2 22.4971 1260.13 32.5303C1276.27 44.1477 1276.8 49.373 1311.48 46.6486C1341.17 44.3165 1362.14 60.9495 1371.99 73.2638C1373.92 75.6837 1372.08 79 1368.98 79Z" fill="url(#paint9_linear)"/>
<defs>
<linearGradient id="paint0_linear" x1="440.587" y1="435.31" x2="664.776" y2="532.19" gradientUnits="userSpaceOnUse">
<stop stop-color="#FFFCF7"/>
<stop offset="1" stop-color="#FFFCF7" stop-opacity="0"/>
</linearGradient>
<linearGradient id="paint1_linear" x1="277.106" y1="460.624" x2="266.207" y2="494.725" gradientUnits="userSpaceOnUse">
<stop stop-color="#FFFCF7"/>
<stop offset="1" stop-color="#FFFCF7" stop-opacity="0"/>
</linearGradient>
<linearGradient id="paint2_linear" x1="144.615" y1="408.132" x2="195.105" y2="562.883" gradientUnits="userSpaceOnUse">
<stop stop-color="#FFFCF7"/>
<stop offset="1" stop-color="#FFFCF7" stop-opacity="0"/>
</linearGradient>
<linearGradient id="paint3_linear" x1="502.819" y1="377.718" x2="495.049" y2="433.817" gradientUnits="userSpaceOnUse">
<stop stop-color="#FFFCF7"/>
<stop offset="1" stop-color="#FFFCF7" stop-opacity="0"/>
</linearGradient>
<linearGradient id="paint4_linear" x1="94.1911" y1="408.323" x2="86.4211" y2="464.422" gradientUnits="userSpaceOnUse">
<stop stop-color="#FFFCF7"/>
<stop offset="1" stop-color="#FFFCF7" stop-opacity="0"/>
</linearGradient>
<linearGradient id="paint5_linear" x1="622.33" y1="363.648" x2="706.334" y2="421.08" gradientUnits="userSpaceOnUse">
<stop stop-color="#FFFCF7"/>
<stop offset="1" stop-color="#FFFCF7" stop-opacity="0"/>
</linearGradient>
<linearGradient id="paint6_linear" x1="744.274" y1="294.483" x2="848.909" y2="349.129" gradientUnits="userSpaceOnUse">
<stop stop-color="#FFFCF7"/>
<stop offset="1" stop-color="#FFFCF7" stop-opacity="0"/>
</linearGradient>
<linearGradient id="paint7_linear" x1="444.976" y1="0.098515" x2="444.976" y2="40.7106" gradientUnits="userSpaceOnUse">
<stop stop-color="white"/>
<stop offset="1" stop-color="white" stop-opacity="0"/>
</linearGradient>
<linearGradient id="paint8_linear" x1="129.247" y1="197.236" x2="129.247" y2="294.536" gradientUnits="userSpaceOnUse">
<stop stop-color="white"/>
<stop offset="1" stop-color="white" stop-opacity="0"/>
</linearGradient>
<linearGradient id="paint9_linear" x1="1188.27" y1="16.1293" x2="1188.27" y2="69.4327" gradientUnits="userSpaceOnUse">
<stop stop-color="white"/>
<stop offset="1" stop-color="white" stop-opacity="0"/>
</linearGradient>
</defs>
</svg>

