<svg width="1421" height="358" viewBox="0 0 1421 358" fill="none" xmlns="http://www.w3.org/2000/svg">
<ellipse cx="1427.76" cy="208.826" rx="88.5686" ry="39.7991" transform="rotate(50.8827 1427.76 208.826)" fill="url(#paint0_linear)"/>
<path d="M1551 169.001C1512.97 193.996 1343.01 397.322 1289.64 316.107C1236.27 234.893 1223.83 148.792 1261.87 123.797C1299.9 98.8019 1288.44 104.448 1393 157C1433 177.105 1589.04 144.005 1551 169.001Z" fill="url(#paint1_linear)"/>
<path d="M1059.78 235.666C998.368 239.057 947.117 215.206 945.305 182.393C943.493 149.58 993.72 115.539 1053.22 116.84C1090.65 117.659 1126.54 121.33 1173.01 156.798C1235.56 204.533 1121.19 232.276 1059.78 235.666Z" fill="url(#paint2_linear)"/>
<path d="M336.225 99H152.547H11C4.92487 99 -0.449118 93.9035 1.54972 88.1666C5.14248 77.855 16.8696 67.1621 54.5472 67.1621C85.0567 67.1621 92.4529 37 130.358 37C146.63 37 172.173 53.268 183.606 48.5603C203.11 38.4723 223.959 43.394 236.737 53.268C251.533 64.7009 252.026 69.8432 283.83 67.1621C311.042 64.8682 330.267 81.2202 339.305 93.3373C341.126 95.7779 339.269 99 336.225 99Z" fill="url(#paint3_linear)"/>
<path d="M963.977 105H723.356H536C529.925 105 524.637 99.9622 526.288 94.1158C529.99 81.0078 544.018 66.4865 595.927 66.4865C635.598 66.4865 645.216 30 694.504 30C715.662 30 748.875 49.6791 763.741 43.9843C789.102 31.781 816.212 37.7347 832.827 49.679C852.067 63.5092 852.708 69.7297 894.062 66.4865C930.308 63.6438 955.657 84.4708 967.032 99.2132C968.926 101.668 967.077 105 963.977 105Z" fill="url(#paint4_linear)"/>
<path d="M711.978 185H596.844H510C503.925 185 498.319 179.404 502.205 174.734C506.137 170.008 514.835 166 533.987 166C553.555 166 558.299 148 582.612 148C593.048 148 609.431 157.708 616.765 154.899C629.275 148.879 642.647 151.816 650.843 157.708C660.333 164.531 660.65 167.6 681.048 166C696.794 164.765 708.37 172.586 714.741 179.437C716.852 181.708 715.078 185 711.978 185Z" fill="url(#paint5_linear)"/>
<defs>
<linearGradient id="paint0_linear" x1="1345.84" y1="202.481" x2="1397.55" y2="244.522" gradientUnits="userSpaceOnUse">
<stop stop-color="#FFFCF7"/>
<stop offset="1" stop-color="#FFFCF7" stop-opacity="0"/>
</linearGradient>
<linearGradient id="paint1_linear" x1="1280.11" y1="127.624" x2="1269.21" y2="261.725" gradientUnits="userSpaceOnUse">
<stop stop-color="#FFFCF7"/>
<stop offset="1" stop-color="#FFFCF7" stop-opacity="0"/>
</linearGradient>
<linearGradient id="paint2_linear" x1="1071.19" y1="120.323" x2="1063.42" y2="176.422" gradientUnits="userSpaceOnUse">
<stop stop-color="#FFFCF7"/>
<stop offset="1" stop-color="#FFFCF7" stop-opacity="0"/>
</linearGradient>
<linearGradient id="paint3_linear" x1="170.827" y1="37.1272" x2="170.827" y2="89.5845" gradientUnits="userSpaceOnUse">
<stop stop-color="white"/>
<stop offset="1" stop-color="white" stop-opacity="0"/>
</linearGradient>
<linearGradient id="paint4_linear" x1="747.125" y1="30.1539" x2="747.125" y2="93.6103" gradientUnits="userSpaceOnUse">
<stop stop-color="white"/>
<stop offset="1" stop-color="white" stop-opacity="0"/>
</linearGradient>
<linearGradient id="paint5_linear" x1="608.569" y1="148.076" x2="608.569" y2="179.381" gradientUnits="userSpaceOnUse">
<stop stop-color="white"/>
<stop offset="1" stop-color="white" stop-opacity="0"/>
</linearGradient>
</defs>
</svg>
