<svg width="130" height="71" viewBox="0 0 130 71" fill="none" xmlns="http://www.w3.org/2000/svg">
<path d="M35.5 0C55.1079 0 71 15.8953 71 35.5C71 55.1079 55.1079 71 35.5 71C15.8953 71 0 55.1063 0 35.5C0 15.8953 15.8953 0 35.5 0Z" fill="#F5AC37"/>
<path d="M36.8139 38.0068H50.3034C50.5909 38.0068 50.7267 38.0068 50.7475 37.6298C50.8577 36.2575 50.8577 34.8773 50.7475 33.5034C50.7475 33.2366 50.6149 33.1264 50.3257 33.1264H23.4795C23.1472 33.1264 23.0577 33.2366 23.0577 33.5481V37.4972C23.0577 38.0068 23.0577 38.0068 23.5897 38.0068H36.8139ZM49.241 28.5112C49.2794 28.4105 49.2794 28.3003 49.241 28.2012C49.0158 27.7108 48.749 27.2427 48.4391 26.8034C47.9726 26.0526 47.423 25.3609 46.7968 24.7394C46.5013 24.364 46.1594 24.0269 45.776 23.741C43.8558 22.1067 41.5729 20.9501 39.1192 20.3686C37.8811 20.0907 36.6158 19.9581 35.3474 19.9692H23.4331C23.1009 19.9692 23.0561 20.1018 23.0561 20.391V28.2667C23.0561 28.599 23.0561 28.6885 23.4779 28.6885H49.0813C49.0813 28.6885 49.3033 28.6438 49.348 28.5112H49.2394H49.241ZM49.241 42.622C48.864 42.5805 48.4838 42.5805 48.1068 42.622H23.5018C23.1696 42.622 23.0577 42.622 23.0577 43.0661V50.7662C23.0577 51.1208 23.0577 51.2103 23.5018 51.2103H34.8618C35.4049 51.2518 35.9481 51.2135 36.4801 51.1C38.1287 50.9818 39.7502 50.624 41.2966 50.0345C41.8589 49.8396 42.4021 49.5856 42.9149 49.2805H43.0698C45.7329 47.8954 47.8959 45.7196 49.2602 43.0486C49.2602 43.0486 49.4151 42.7131 49.241 42.6252V42.622ZM18.5991 55.2025V55.0699V49.9003V48.1478V42.9335C18.5991 42.6444 18.5991 42.6013 18.2444 42.6013H13.4295C13.1627 42.6013 13.0525 42.6013 13.0525 42.2466V38.0308H18.1997C18.4872 38.0308 18.5991 38.0308 18.5991 37.6537V33.4826C18.5991 33.2158 18.5991 33.1503 18.2444 33.1503H13.4295C13.1627 33.1503 13.0525 33.1503 13.0525 32.7957V28.8914C13.0525 28.647 13.0525 28.5815 13.4071 28.5815H18.1773C18.5096 28.5815 18.5991 28.5815 18.5991 28.1597V16.2007C18.5991 15.8461 18.5991 15.7566 19.0432 15.7566H35.6829C36.8906 15.8045 38.0904 15.9371 39.2773 16.156C41.7231 16.6081 44.073 17.4819 46.2217 18.7296C47.6467 19.5683 48.9583 20.5811 50.126 21.7473C51.0047 22.6595 51.797 23.6467 52.5 24.6979C53.1981 25.7634 53.778 26.9025 54.2333 28.0926C54.2892 28.4025 54.5863 28.6118 54.8962 28.5591H58.8676C59.3773 28.5591 59.3773 28.5591 59.3996 29.0479V32.6871C59.3996 33.0417 59.267 33.1312 58.9108 33.1312H55.8483C55.5384 33.1312 55.449 33.1312 55.4713 33.5306C55.5927 34.8821 55.5927 36.2383 55.4713 37.5898C55.4713 37.9669 55.4713 38.0116 55.8947 38.0116H59.398C59.553 38.2113 59.398 38.411 59.398 38.6123C59.4204 38.8695 59.4204 39.1299 59.398 39.3871V42.0725C59.398 42.4495 59.2878 42.5613 58.9539 42.5613H54.7604C54.4681 42.5054 54.1837 42.6923 54.1166 42.9831C53.1182 45.579 51.5207 47.9066 49.4567 49.7725C48.7027 50.4514 47.9103 51.0905 47.0828 51.6799C46.1946 52.1911 45.3303 52.7231 44.4197 53.1449C42.7439 53.8989 40.9867 54.4548 39.1831 54.8079C37.4705 55.1146 35.734 55.2536 33.9911 55.2296H18.5927V55.2073L18.5991 55.2025Z" fill="#FEFEFD"/>
<path d="M94.5 71C114.173 71 130 55.173 130 35.5C130 15.827 114.173 0 94.5 0C74.827 0 59 15.827 59 35.5C59 55.173 74.827 71 94.5 71Z" fill="#2775CA"/>
<path d="M104.263 41.1207C104.263 35.9438 101.156 34.1688 94.9438 33.4293C90.5063 32.8375 89.6188 31.6543 89.6188 29.5833C89.6188 27.5122 91.0981 26.1813 94.0563 26.1813C96.7188 26.1813 98.1981 27.0688 98.9375 29.2875C99.0856 29.7313 99.5293 30.027 99.9731 30.027H102.339C102.931 30.027 103.375 29.5833 103.375 28.9918V28.8438C102.783 25.5895 100.121 23.075 96.7188 22.7793V19.2293C96.7188 18.6375 96.275 18.1938 95.5356 18.0458H93.3168C92.725 18.0458 92.2813 18.4895 92.1333 19.2293V22.6313C87.6958 23.2231 84.8856 26.1813 84.8856 29.8793C84.8856 34.7606 87.8438 36.6833 94.0563 37.4231C98.1981 38.1625 99.5293 39.05 99.5293 41.4168C99.5293 43.7836 97.4582 45.4106 94.6481 45.4106C90.802 45.4106 89.4708 43.7832 89.027 41.5645C88.8793 40.9731 88.4356 40.677 87.9918 40.677H85.477C84.8856 40.677 84.4418 41.1208 84.4418 41.7125V41.8606C85.0333 45.5583 87.4 48.2207 92.2813 48.9606V52.5106C92.2813 53.102 92.725 53.5457 93.4645 53.6938H95.6832C96.275 53.6938 96.7188 53.25 96.8668 52.5106V48.9606C101.304 48.2207 104.263 45.1145 104.263 41.1207Z" fill="white"/>
<path d="M86.9563 56.6519C75.4188 52.5105 69.502 39.6418 73.7918 28.2519C76.0106 22.0394 80.8918 17.3062 86.9563 15.0875C87.5481 14.7918 87.8438 14.348 87.8438 13.6082V11.5375C87.8438 10.9457 87.5481 10.502 86.9563 10.3543C86.8082 10.3543 86.5125 10.3543 86.3645 10.5019C72.3125 14.9394 64.6207 29.8793 69.0582 43.9312C71.7207 52.2144 78.0813 58.575 86.3645 61.2375C86.9563 61.5332 87.5481 61.2375 87.6957 60.6457C87.8438 60.498 87.8438 60.35 87.8438 60.0543V57.9832C87.8438 57.5394 87.4 56.948 86.9563 56.6519ZM102.636 10.5019C102.044 10.2062 101.452 10.502 101.304 11.0937C101.156 11.2418 101.156 11.3895 101.156 11.6855V13.7562C101.156 14.348 101.6 14.9395 102.044 15.2355C113.581 19.3769 119.498 32.2457 115.208 43.6355C112.989 49.848 108.108 54.5812 102.044 56.8C101.452 57.0957 101.156 57.5394 101.156 58.2793V60.35C101.156 60.9418 101.452 61.3855 102.044 61.5332C102.192 61.5332 102.488 61.5332 102.636 61.3855C116.688 56.948 124.379 42.0082 119.942 27.9562C117.279 19.525 110.771 13.1644 102.636 10.5019Z" fill="white"/>
</svg>
