<svg width="117" height="34" viewBox="0 0 117 34" fill="none" xmlns="http://www.w3.org/2000/svg">
<path d="M16.3728 0.341315C15.5825 -0.113772 14.2899 -0.113772 13.4995 0.341315L1.43716 7.29763C0.646772 7.75272 0 8.87227 0 9.78342V23.6961C0 24.6072 0.646772 25.7258 1.43716 26.1818L13.4995 33.1382C14.2899 33.5933 15.5825 33.5933 16.3728 33.1382L28.4389 26.1818C29.2293 25.7258 29.8761 24.6072 29.8761 23.6961V9.78342C29.8761 8.87227 29.2293 7.75272 28.4389 7.29763L16.3728 0.341315Z" fill="#67C74F"/>
<path fill-rule="evenodd" clip-rule="evenodd" d="M16.4293 4.34339L25.1398 9.40288V9.40193C25.4078 9.58754 25.6423 9.81774 25.8332 10.0827L22.3397 12.1133C22.1057 11.7901 21.8074 11.5192 21.4637 11.3179L21.4494 11.3026L11.4359 5.49163L12.3014 4.98969L13.2839 4.41606C13.3286 4.39766 13.3719 4.37593 13.4133 4.35104C14.3055 3.79654 15.4279 3.77673 16.339 4.29941C16.3681 4.31616 16.3982 4.33085 16.4293 4.34339ZM7.24235 7.92388L17.2663 13.7415H17.2654C17.612 13.9428 17.913 14.2147 18.149 14.5398L14.9151 16.4185L4.00847 10.0884C4.23797 9.77092 4.52919 9.50354 4.86449 9.3025L7.24235 7.92388ZM3.70981 10.6123L12.2177 15.5514L14.6279 16.951V20.7045C14.2522 20.6674 13.8877 20.5549 13.556 20.3737L7.38974 16.7943L7.35741 16.7751C7.0816 16.6365 6.86285 16.7368 6.86285 17.0189C6.86285 17.301 7.0816 17.6576 7.35741 17.8363L7.37643 17.8469C7.38115 17.8509 7.38625 17.8544 7.39168 17.8574C7.39745 17.8598 7.40294 17.863 7.40782 17.8669L13.4475 21.37L13.4552 21.3767C13.4649 21.3812 13.4745 21.3863 13.4837 21.392L13.5065 21.4044C13.8525 21.6021 14.2357 21.7249 14.6317 21.7648V25.1015C14.2831 25.067 13.944 24.9682 13.6311 24.8099L12.1026 23.9227L7.42684 21.2084L7.40116 21.1931L7.37643 21.1797L7.35647 21.1682C7.04639 21.0114 6.80103 21.1281 6.80103 21.4465C6.80103 21.7648 7.04639 22.1673 7.35647 22.371L13.4437 25.9027L13.4571 25.9094C13.8167 26.1217 14.2183 26.2523 14.6336 26.2918V29.6132C14.287 29.5798 13.9494 29.4826 13.6378 29.3263L4.83121 24.2152C3.99385 23.7021 3.47736 22.7926 3.46347 21.8069V11.7376C3.46851 11.3496 3.55234 10.9667 3.70981 10.6123ZM16.3333 20.3384L16.3837 20.3116L18.7006 18.9674V16.2674V16.2349C18.6998 15.8339 18.6151 15.4375 18.4524 15.0714L15.2185 16.951V20.7026C15.6123 20.662 15.9932 20.5393 16.3371 20.3422L16.3333 20.3384ZM26.1385 10.6123C26.2989 10.9757 26.3819 11.3688 26.382 11.7663L26.3811 11.7644C26.3811 11.7964 26.3836 11.8284 26.3887 11.86V21.6606C26.3837 21.6942 26.3811 21.728 26.3811 21.7619C26.3814 22.7805 25.8455 23.7232 24.9725 24.2401C24.9662 24.2439 24.9601 24.2481 24.9544 24.2525L22.8866 25.4533V20.9273L16.3238 24.7372C15.983 24.9288 15.6069 25.0485 15.2185 25.089V21.7639C15.6071 21.7225 15.983 21.6011 16.3228 21.4073H16.3361L22.8847 17.6069V13.8849V13.7989V13.7358V13.5053L22.8657 13.4671C22.8335 13.1818 22.7588 12.903 22.644 12.6401L26.1385 10.6123ZM16.3209 25.9428L16.2924 25.9562C15.9599 26.1368 15.5947 26.2486 15.2185 26.2851V29.6161C15.6033 29.5762 15.9758 29.4578 16.3133 29.268L18.7054 27.8808V24.5604L16.3209 25.9428Z" fill="#18192D"/>
<path d="M35.4265 10.359C35.427 10.0904 35.6434 9.87287 35.9106 9.87231H44.8855C45.1523 9.87337 45.3681 10.0908 45.3686 10.359V11.3542C45.3686 11.6226 45.1525 11.8404 44.8855 11.8409H37.9983C37.7315 11.8419 37.5157 12.0594 37.5152 12.3275V15.9663C37.5157 16.2344 37.7315 16.4519 37.9983 16.4529H44.3414C44.6082 16.4534 44.8245 16.6704 44.8255 16.9386V17.9348C44.824 18.2028 44.608 18.4195 44.3414 18.4205H37.9983C37.7317 18.421 37.5157 18.6382 37.5152 18.9062V22.8987C37.5157 23.1668 37.7317 23.3839 37.9983 23.3844H45.2745C45.5411 23.386 45.7566 23.6031 45.7577 23.8711V24.8673C45.7566 25.1351 45.5409 25.3519 45.2745 25.353H35.9106C35.6438 25.3524 35.4275 25.1354 35.4265 24.8673V10.359Z" fill="#18192D"/>
<path d="M52.874 16.2101C52.873 16.4782 52.6567 16.6952 52.3899 16.6958H50.5504C50.284 16.6968 50.0682 16.9136 50.0672 17.1815V20.9101C50.0672 21.1768 50.0672 21.6147 50.073 21.8814C50.073 21.8814 50.073 21.9771 50.0891 22.2639C50.0986 22.5265 50.1539 22.7854 50.2527 23.0287C50.3422 23.2493 50.4931 23.4392 50.6873 23.5756C50.8833 23.7142 51.1687 23.7831 51.5434 23.7831C51.7839 23.7821 52.0238 23.7603 52.2605 23.718L52.5069 23.6741C52.7428 23.566 52.9349 23.6961 52.9349 23.9609V24.7821C52.9191 25.0707 52.7476 25.3275 52.4879 25.4514C52.339 25.4948 52.1865 25.5239 52.0323 25.5384C51.7488 25.5819 51.4629 25.6075 51.1762 25.6149C50.4217 25.6149 49.8377 25.5091 49.4242 25.2975C49.0471 25.1191 48.7296 24.8344 48.5102 24.4781C48.3115 24.1335 48.1928 23.7481 48.163 23.3509C48.1259 22.936 48.1183 22.5803 48.1183 22.5803C48.1126 22.3117 48.1079 21.8757 48.1079 21.6071V17.1815C48.1069 16.9136 47.8912 16.6968 47.6247 16.6958H46.3302C46.0634 16.6952 45.8472 16.4782 45.8461 16.2101V15.4758C45.8472 15.2076 46.0634 14.9906 46.3302 14.9901H47.6257C47.8921 14.9891 48.1078 14.7722 48.1089 14.5044V12.5674C48.1094 12.2994 48.3254 12.0823 48.592 12.0818H49.5841C49.8507 12.0823 50.0667 12.2994 50.0672 12.5674V14.5044C50.0682 14.7722 50.284 14.9891 50.5504 14.9901H52.3899C52.6567 14.9906 52.873 15.2076 52.874 15.4758V16.2101Z" fill="#18192D"/>
<path d="M54.5275 9.30922C54.528 9.04067 54.7444 8.82313 55.0116 8.82257H56.0019C56.2687 8.82363 56.4844 9.04106 56.4849 9.30922V16.0973C56.4777 16.2599 56.4855 16.4228 56.5076 16.5839C56.6141 16.4565 56.7117 16.322 56.7999 16.1815C57.0694 15.8008 57.4143 15.4799 57.8129 15.2388C58.4601 14.8883 59.1865 14.7124 59.9212 14.7282C60.4064 14.7266 60.8882 14.8041 61.3479 14.9577C61.7937 15.1039 62.2018 15.3463 62.5445 15.668C62.9027 16.0156 63.1811 16.4374 63.3607 16.9042C63.5631 17.4071 63.6258 18.2016 63.6258 18.2016C63.648 18.4674 63.6652 18.9043 63.6652 19.172V24.8701C63.6641 25.1383 63.4478 25.3553 63.1811 25.3558H62.1896C61.9235 25.3548 61.7083 25.1378 61.7078 24.8701V19.7188C61.7078 19.4521 61.6917 19.0143 61.6717 18.7485C61.6496 18.4922 61.5958 18.2396 61.5109 17.997C61.4 17.6846 61.2215 17.4008 60.9886 17.1662C60.7768 16.9579 60.52 16.8007 60.2389 16.7063C59.9544 16.6121 59.6567 16.5644 59.3572 16.5648C58.9719 16.5611 58.5887 16.6275 58.2266 16.7608C57.8773 16.8934 57.564 17.1074 57.3122 17.3851C57.0344 17.6979 56.8265 18.0669 56.7028 18.4674C56.6025 18.8157 56.5387 19.1736 56.5126 19.5353C56.4955 19.8021 56.481 20.239 56.481 20.5057V24.8701C56.4805 25.1382 56.2648 25.3553 55.9981 25.3558H55.0116C54.7448 25.3553 54.5285 25.1383 54.5275 24.8701V9.30922Z" fill="#18192D"/>
<path d="M66.3889 14.9902H67.3798C67.5079 14.9902 67.6315 15.0415 67.7219 15.1327C67.8129 15.224 67.8639 15.3477 67.8639 15.4768V24.8701C67.8639 25.1384 67.6476 25.3558 67.3809 25.3558H66.3889C66.1211 25.3558 65.9048 25.1379 65.9048 24.8692V15.4759C65.9048 15.2074 66.1216 14.9902 66.3889 14.9902Z" fill="#18192D"/>
<path d="M77.8372 17.4186C77.6309 17.5969 77.3259 17.5969 77.1202 17.4186C76.8806 17.2086 76.6178 17.027 76.3372 16.8775C75.8903 16.6708 75.4023 16.57 74.9105 16.583C74.4264 16.5717 73.9457 16.6725 73.5065 16.8775C73.1172 17.0683 72.7762 17.3451 72.509 17.6872C72.235 18.0398 72.0282 18.44 71.899 18.868C71.7609 19.3179 71.6916 19.7863 71.6938 20.2572C71.6911 20.7233 71.7715 21.1861 71.9323 21.6234C72.0825 22.0406 72.3115 22.4246 72.6065 22.7544C72.8993 23.0768 73.2559 23.3341 73.6529 23.5097C74.0854 23.6969 74.5528 23.7898 75.0236 23.7821C75.511 23.7957 75.9951 23.6949 76.437 23.4877C76.7049 23.3434 76.9533 23.1654 77.1762 22.9581C77.3719 22.7746 77.6763 22.7784 77.8677 22.9666L78.5763 23.6799C78.6672 23.7684 78.7172 23.8915 78.7133 24.0189C78.7099 24.1464 78.6523 24.2663 78.5563 24.3491C78.5563 24.3491 77.8189 25.005 77.1446 25.2526C76.457 25.502 75.7312 25.6273 74.9998 25.6226C74.2523 25.6322 73.5098 25.4985 72.8123 25.2287C72.1729 24.9812 71.5907 24.6054 71.1 24.1244C70.6159 23.6402 70.2377 23.0591 69.991 22.4188C69.7237 21.7173 69.5912 20.9711 69.6 20.2199C69.5917 19.4653 69.7242 18.7157 69.991 18.0104C70.2366 17.3653 70.6103 16.7774 71.09 16.2828C71.5718 15.794 72.1496 15.4109 72.7868 15.1575C73.4893 14.8795 74.2395 14.7418 74.9953 14.7521C75.7356 14.75 76.4698 14.8875 77.1601 15.1575C77.8482 15.4262 78.5868 16.0743 78.5868 16.0743C78.6822 16.1534 78.7382 16.2707 78.7399 16.3951C78.7416 16.5194 78.6883 16.6382 78.5952 16.7197L77.8372 17.4186Z" fill="#18192D"/>
<path d="M80.8742 10.359C80.8747 10.0904 81.091 9.87287 81.3583 9.87231H82.4783C82.7456 9.87287 82.9619 10.0904 82.9624 10.359V15.8162C82.963 16.0847 83.1798 16.3023 83.4465 16.3028H90.4643C90.731 16.3018 90.9467 16.0842 90.9467 15.8162V10.359C90.9473 10.0904 91.1635 9.87287 91.4308 9.87231H92.5531C92.8198 9.87337 93.035 10.091 93.035 10.359V24.8701C93.0344 25.1378 92.8193 25.3547 92.5531 25.3558H91.4308C91.1641 25.3553 90.9473 25.1383 90.9467 24.8701V18.7561C90.9462 18.4885 90.7305 18.2715 90.4643 18.2704H83.4465C83.1798 18.2709 82.9635 18.4879 82.9624 18.7561V24.8701C82.9619 25.1383 82.7451 25.3553 82.4783 25.3558H81.3583C81.0915 25.3553 80.8747 25.1383 80.8742 24.8701V10.359Z" fill="#18192D"/>
<path d="M103.892 24.8701C103.89 25.1379 103.675 25.3548 103.408 25.3558H102.417C102.151 25.3548 101.935 25.1379 101.934 24.8701V24.2449C101.941 24.083 101.934 23.9207 101.912 23.7602C101.806 23.887 101.707 24.0212 101.619 24.1617C101.35 24.5426 101.005 24.8636 100.606 25.1044C99.959 25.4562 99.2321 25.6331 98.4968 25.6178C98.0088 25.6208 97.5236 25.5436 97.0601 25.3893C96.6192 25.24 96.2145 24.9975 95.874 24.678C95.5158 24.3311 95.238 23.9094 95.0589 23.4427C94.8554 22.9389 94.7916 22.1454 94.7916 22.1454C94.7711 21.8777 94.7539 21.4417 94.7539 21.174V15.4759C94.755 15.2077 94.9713 14.9907 95.238 14.9902H96.2289C96.4956 14.9907 96.7119 15.2078 96.7124 15.4759V20.6272C96.7124 20.8949 96.7285 21.3308 96.7473 21.5985C96.769 21.8545 96.8233 22.1067 96.9082 22.349C97.0196 22.6614 97.1976 22.9453 97.4305 23.1808C97.6429 23.3887 97.899 23.5453 98.1807 23.6387C98.4646 23.7346 98.763 23.7831 99.0624 23.7821C99.4483 23.7857 99.8315 23.7186 100.194 23.5843C100.543 23.452 100.856 23.2385 101.107 22.9609C101.385 22.6479 101.593 22.2789 101.716 21.8786C101.815 21.5304 101.877 21.1728 101.901 20.8116C101.92 20.5439 101.934 20.108 101.934 19.8394V15.4759C101.935 15.2078 102.15 14.9907 102.417 14.9902H103.408C103.675 14.9907 103.891 15.2078 103.892 15.4759V24.8701Z" fill="#18192D"/>
<path fill-rule="evenodd" clip-rule="evenodd" d="M106.25 8.82257C105.983 8.82413 105.767 9.04112 105.766 9.30922L105.77 24.8692C105.771 25.1372 105.987 25.3538 106.254 25.3549H107.245C107.511 25.3538 107.727 25.137 107.728 24.8692V24.3539C107.721 24.1916 107.728 24.0291 107.75 23.8682C107.873 23.9806 107.989 24.1003 108.098 24.2267C108.098 24.2267 108.668 24.852 109.327 25.1579C109.963 25.4586 110.658 25.6152 111.361 25.6168C112.104 25.6279 112.84 25.4867 113.526 25.2019C114.153 24.9385 114.717 24.5431 115.179 24.0422C115.64 23.5413 115.999 22.9548 116.235 22.3156C116.487 21.6295 116.612 20.9032 116.605 20.172C116.611 19.4375 116.486 18.7079 116.235 18.018C116.002 17.3769 115.643 16.7894 115.179 16.2904C114.714 15.7964 114.151 15.4056 113.526 15.1431C112.84 14.8588 112.104 14.7177 111.361 14.7282C110.638 14.7235 109.922 14.884 109.269 15.1976C108.616 15.5112 108.087 16.1126 108.087 16.1126C107.982 16.2409 107.867 16.3625 107.746 16.4769C107.724 16.3159 107.717 16.1534 107.724 15.9912V9.30922C107.723 9.04129 107.507 8.82419 107.241 8.82257H106.25ZM112.528 23.5078C112.081 23.696 111.599 23.789 111.114 23.7812C110.629 23.7891 110.148 23.6961 109.701 23.5078C109.297 23.3377 108.934 23.0846 108.635 22.7649C108.335 22.4359 108.105 22.0487 107.959 21.6272C107.641 20.6841 107.641 19.6619 107.959 18.7188C108.105 18.2974 108.335 17.9103 108.635 17.5811C108.934 17.2614 109.297 17.0083 109.701 16.8383C110.608 16.4736 111.621 16.4736 112.528 16.8383C112.932 17.0083 113.295 17.2614 113.595 17.5811C113.894 17.9106 114.123 18.2976 114.269 18.7188C114.588 19.6617 114.588 20.6843 114.269 21.6272C114.123 22.0485 113.894 22.4356 113.595 22.7649C113.295 23.0846 112.932 23.3377 112.528 23.5078Z" fill="#18192D"/>
<path d="M68.4367 10.7079C68.4278 10.5602 68.3502 10.4252 68.2276 10.3437L67.2013 9.75187C67.0698 9.68492 66.914 9.68492 66.7826 9.75187L65.7562 10.3475C65.6331 10.4287 65.5555 10.5639 65.5472 10.7117V11.903C65.5555 12.0509 65.6331 12.186 65.7562 12.2673L66.7826 12.8629C66.9146 12.9288 67.0693 12.9288 67.2013 12.8629L68.2276 12.2673C68.3502 12.1857 68.4278 12.0508 68.4367 11.903V10.7079Z" fill="#67C74F"/>
</svg>
