<svg width="1440" height="481" viewBox="0 0 1440 481" fill="none" xmlns="http://www.w3.org/2000/svg">
<path d="M137.318 307.783C80.1663 289.265 -18.0503 301.858 -62.1031 313.028L-55.3683 569.13L1099.31 538.765L1091.99 260.654L631.337 262.757C591.366 241.784 555.015 264.764 532.857 265.347C510.699 265.93 474.611 298.914 390.062 269.102C355.111 256.779 301.412 270.766 277.073 282.084C249.539 296.824 183.04 322.599 137.318 307.783Z" fill="#D2DA71"/>
<path d="M119.605 319.815C58.1698 301.409 -47.496 314.199 -94.9009 325.456L-88.1661 581.559L1153.85 548.897L1146.54 270.786L651.056 273.805C608.106 252.91 568.961 275.963 545.127 276.59C521.293 277.217 482.412 310.274 391.53 280.629C353.962 268.375 296.177 282.469 269.975 293.837C240.33 308.632 168.753 334.54 119.605 319.815Z" fill="#86D270"/>
<path d="M543.056 349.522C592.611 325.637 682.229 328.782 722.979 335.686L742.621 591.123L-299.152 671.233L-320.482 393.844L94.1267 351.925C127.979 327.24 162.986 346.63 182.977 345.092C202.969 343.555 238.743 372.922 311.811 335.185C342.015 319.586 391.725 328.371 414.756 337.306C441.005 349.339 503.413 368.629 543.056 349.522Z" fill="#67BC64" fill-opacity="0.43"/>
<path d="M363.163 326.329C490.006 254.705 540.89 262.755 652.056 299.708C654.565 300.542 657.082 301.348 659.584 302.2C674.521 307.285 732.83 328.779 805.824 377.034C890.742 433.171 1066 521 1066 521H0C0 521 162.61 427.804 207.78 409.63C252.949 391.456 318.326 351.646 363.163 326.329Z" fill="#7DCF75"/>
<mask id="mask0" mask-type="alpha" maskUnits="userSpaceOnUse" x="0" y="272" width="1066" height="249">
<path d="M363.163 326.329C490.006 254.705 540.89 262.755 652.056 299.708C654.565 300.542 657.082 301.348 659.584 302.2C674.521 307.285 732.83 328.779 805.824 377.034C890.742 433.171 1066 521 1066 521H0C0 521 162.61 427.804 207.78 409.63C252.949 391.456 318.326 351.646 363.163 326.329Z" fill="#95EB8C"/>
</mask>
<g mask="url(#mask0)">
<path d="M388 341C404 318.6 494.667 287.667 538 275V195H378L66 409L4 499H104C141.333 477 221.2 430.6 242 421C268 409 368 369 388 341Z" fill="#A7FF88" fill-opacity="0.18"/>
<g style="mix-blend-mode:multiply">
<path d="M535.007 315C560.607 276.6 545.674 265.667 535.007 265H805.007L893.007 405L1036 503C904 498.333 446.4 554.2 448 487C450 403 503.007 363 535.007 315Z" fill="#53A06D" fill-opacity="0.26"/>
</g>
</g>
<path d="M918.629 82.2732C1074.1 -24.6292 1136.78 -13.0144 1272.54 41.85C1276.54 43.4664 1280.6 45.0468 1284.57 46.7205C1304.95 55.3004 1375.38 87.6543 1463.03 158.208C1567.46 242.28 1783 373.811 1783 373.811H472C472 373.811 671.983 234.241 727.534 207.024C783.085 179.807 863.487 120.188 918.629 82.2732Z" fill="#78C66F"/>
<mask id="mask1" mask-type="alpha" maskUnits="userSpaceOnUse" x="472" y="0" width="1311" height="374">
<path d="M918.629 82.2732C1074.1 -24.6292 1136.78 -13.0144 1272.54 41.85C1276.54 43.4664 1280.6 45.0468 1284.57 46.7205C1304.95 55.3004 1375.38 87.6543 1463.03 158.208C1567.46 242.28 1783 373.811 1783 373.811H472C472 373.811 671.983 234.241 727.534 207.024C783.085 179.807 863.487 120.188 918.629 82.2732Z" fill="#95EB8C"/>
</mask>
<g mask="url(#mask1)">
<path d="M949.175 104.245C968.852 70.699 1080.36 24.3736 1133.65 5.40409V-114.403H936.876L553.169 206.081L476.919 340.864H599.902C645.816 307.917 744.039 238.429 769.619 224.052C801.595 206.081 924.578 146.177 949.175 104.245Z" fill="#EEFF88" fill-opacity="0.18"/>
<g style="mix-blend-mode:multiply">
<path d="M1129.97 81C1161.45 23.4925 1143.09 -8.57342 1129.97 -9.57181H1462.02L1570.25 200.091L1746.11 346.854C1583.77 339.866 648.652 448.357 702 363C762 267 1090.61 152.884 1129.97 81Z" fill="#004417" fill-opacity="0.26"/>
</g>
</g>
<path d="M932.802 253.62C1107.02 155.245 1176.91 166.301 1329.6 217.057C1333.04 218.202 1336.5 219.309 1339.93 220.479C1360.45 227.464 1440.54 256.986 1540.79 323.263C1657.43 400.368 1898.14 521 1898.14 521H434C434 521 657.344 392.995 719.384 368.034C781.424 343.072 871.219 288.394 932.802 253.62Z" fill="#78C66F"/>
<mask id="mask2" mask-type="alpha" maskUnits="userSpaceOnUse" x="434" y="179" width="1465" height="342">
<path d="M932.802 253.62C1107.02 155.245 1176.91 166.301 1329.6 217.057C1333.04 218.202 1336.5 219.309 1339.93 220.479C1360.45 227.464 1440.54 256.986 1540.79 323.263C1657.43 400.368 1898.14 521 1898.14 521H434C434 521 657.344 392.995 719.384 368.034C781.424 343.072 871.219 288.394 932.802 253.62Z" fill="#95EB8C"/>
</mask>
<g mask="url(#mask2)">
<path d="M966.916 273.771C988.892 243.005 1113.42 200.518 1172.94 183.12V73.241H953.181L524.651 367.169L439.494 490.783H576.843C628.12 460.566 737.817 396.836 766.386 383.651C802.096 367.169 939.446 312.229 966.916 273.771Z" fill="#EEFF88" fill-opacity="0.18"/>
<g style="mix-blend-mode:multiply">
<path d="M1168.83 238.06C1203.99 185.318 1183.48 170.301 1168.83 169.386H1539.67L1660.54 361.675L1856.94 496.277C1675.64 489.867 1047.13 566.6 1049.33 474.301C1052.07 358.928 1124.88 303.988 1168.83 238.06Z" fill="#2F7B49" fill-opacity="0.26"/>
</g>
</g>
</svg>
